# File created by Blade
# Date/Time:  Tue Jan 27 17:21:37 2015
# Frame Rate: 120.000 fps
#------------------------------------------------------
:FULLY-SPECIFIED
:DEGREES
3885
root -1.891678 37.642100 0.448697 38.513957 18.836067 14.496080
Spine -9.901668 7.630636 -4.648925
Head -10.821358 14.741400 -19.316287
LeftShoulder -3.360070 -11.918521 5.290290
LeftArm -1.376096 -26.909386 -44.593439
LeftForeArm -4.824204 -0.000000 76.908824
LeftHand -18.343633 -0.000000 54.571430
LeftHandThumb1 -26.253704 0.000000 33.147579
RightShoulder -2.644525 -20.552429 -5.658984
RightArm 12.113222 -15.681891 55.962616
RightForeArm 191.250539 -0.000000 40.150718
RightHand -2.111453 -0.000000 7.585441
RightHandThumb1 -24.326973 -0.000000 -32.862282
LeftUpLeg -11.276515 3.725755 17.354874
LeftLeg 81.054109 -0.000000 -0.000000
LeftFoot 6.181851 -0.557982 -29.154005
LeftToeBase 11.844380 -0.000000 -0.000000
RightUpLeg -35.024937 -16.184073 3.220176
RightLeg 5.300886 -0.000000 -0.000000
RightFoot -11.115374 -4.511987 -3.614345
RightToeBase -0.258483 -0.000000 0.000000
3886
root -1.905503 37.648347 0.456392 38.528492 18.977885 14.651763
Spine -9.784136 7.533514 -4.690185
Head -10.811941 14.727230 -19.349143
LeftShoulder -3.348765 -11.927503 5.277871
LeftArm -1.310192 -26.907014 -44.623675
LeftForeArm -4.854514 -0.000000 76.847772
LeftHand -18.320302 -0.000000 54.382445
LeftHandThumb1 -26.253704 0.000000 33.147579
RightShoulder -2.628085 -20.561326 -5.703410
RightArm 12.133147 -15.666009 56.056657
RightForeArm 191.196262 -0.000000 40.035567
RightHand -2.138001 0.000000 7.547065
RightHandThumb1 -24.326973 -0.000000 -32.862282
LeftUpLeg -11.034335 3.921407 17.478304
LeftLeg 78.654368 -0.000000 -0.000000
LeftFoot 6.826130 -0.528917 -29.021092
LeftToeBase 11.690771 -0.000000 -0.000000
RightUpLeg -34.952399 -16.375588 3.193340
RightLeg 5.248390 -0.000000 -0.000000
RightFoot -11.113483 -4.489700 -3.600307
RightToeBase -0.267488 -0.000000 0.000000
3887
root -1.918793 37.656820 0.462784 38.568656 19.134319 14.831509
Spine -9.681130 7.411470 -4.737928
Head -10.802214 14.702142 -19.406978
LeftShoulder -3.350639 -11.925932 5.261157
LeftArm -1.226954 -26.893904 -44.663031
LeftForeArm -4.912866 0.000000 76.772453
LeftHand -18.232733 -0.000000 54.293390
LeftHandThumb1 -26.253704 0.000000 33.147579
RightShoulder -2.595929 -20.572387 -5.730488
RightArm 12.121751 -15.761813 56.051504
RightForeArm 191.246612 -0.000000 40.001824
RightHand -2.091581 0.000000 7.564349
RightHandThumb1 -24.326973 -0.000000 -32.862282
LeftUpLeg -10.803649 4.116105 17.565657
LeftLeg 76.138445 -0.000000 -0.000000
LeftFoot 7.515271 -0.393805 -28.522219
LeftToeBase 11.243595 -0.000000 -0.000000
RightUpLeg -34.909429 -16.636596 3.188194
RightLeg 5.199954 -0.000000 -0.000000
RightFoot -11.106266 -4.375809 -3.581742
RightToeBase -0.265377 -0.000000 0.000000
3888
root -1.931629 37.664988 0.469048 38.609147 19.280326 15.001812
Spine -9.576398 7.337722 -4.782986
Head -10.789914 14.660952 -19.475320
LeftShoulder -3.339366 -11.927053 5.219331
LeftArm -1.116350 -26.838686 -44.675776
LeftForeArm -4.999254 -0.000000 76.684725
LeftHand -18.185684 -0.000000 54.413335
LeftHandThumb1 -26.253704 0.000000 33.147579
RightShoulder -2.584037 -20.572289 -5.779767
RightArm 12.091672 -15.796671 56.120496
RightForeArm 191.240600 0.000000 39.934556
RightHand -2.081765 -0.000000 7.521815
RightHandThumb1 -24.326973 -0.000000 -32.862282
LeftUpLeg -10.547534 4.258471 17.655930
LeftLeg 73.539438 -0.000000 -0.000000
LeftFoot 8.001200 -0.417045 -28.802853
LeftToeBase 11.886018 -0.000000 -0.000000
RightUpLeg -34.874147 -16.892962 3.187018
RightLeg 5.161338 -0.000000 -0.000000
RightFoot -11.107284 -4.272742 -3.559148
RightToeBase -0.267665 -0.000000 0.000000
3889
root -1.943575 37.674028 0.475244 38.624241 19.453376 15.202130
Spine -9.414761 7.231693 -4.825703
Head -10.772092 14.683003 -19.538235
LeftShoulder -3.305996 -11.954249 5.179912
LeftArm -1.050231 -26.835775 -44.713666
LeftForeArm -5.027993 -0.000000 76.625342
LeftHand -18.163829 -0.000000 54.381240
LeftHandThumb1 -26.253704 0.000000 33.147579
RightShoulder -2.568485 -20.585292 -5.815313
RightArm 12.117130 -15.831506 56.153470
RightForeArm 191.252091 -0.000000 39.838202
RightHand -2.116135 -0.000000 7.184538
RightHandThumb1 -24.326973 -0.000000 -32.862282
LeftUpLeg -10.266951 4.322005 17.711507
LeftLeg 70.861258 -0.000000 -0.000000
LeftFoot 8.408490 -0.402910 -28.964355
LeftToeBase 12.018455 -0.000000 -0.000000
RightUpLeg -34.764153 -17.010235 3.044296
RightLeg 5.129698 -0.000000 -0.000000
RightFoot -11.129805 -4.356157 -3.447597
RightToeBase -0.160491 -0.000000 0.000000
3890
root -1.955649 37.684396 0.480967 38.682394 19.607805 15.402206
Spine -9.316242 7.142544 -4.885731
Head -10.715694 14.691029 -19.585709
LeftShoulder -3.284046 -11.935346 5.127585
LeftArm -0.940036 -26.884915 -44.781856
LeftForeArm -5.083979 -0.000000 76.579726
LeftHand -18.139153 -0.000000 54.221583
LeftHandThumb1 -26.253704 0.000000 33.147579
RightShoulder -2.544420 -20.596368 -5.839935
RightArm 12.092519 -15.767742 56.235715
RightForeArm 191.187044 -0.000000 39.738974
RightHand -2.176774 -0.000000 6.996050
RightHandThumb1 -24.326973 -0.000000 -32.862282
LeftUpLeg -9.995910 4.379866 17.741987
LeftLeg 68.074665 -0.000000 -0.000000
LeftFoot 8.650313 -0.240706 -29.418015
LeftToeBase 12.719189 -0.000000 -0.000000
RightUpLeg -34.749110 -17.317401 3.045097
RightLeg 5.104386 -0.000000 -0.000000
RightFoot -11.138395 -4.224735 -3.442557
RightToeBase -0.133237 -0.000000 0.000000
3891
root -1.963463 37.694176 0.486955 38.736090 19.778697 15.617711
Spine -9.213115 7.048166 -4.933546
Head -10.647778 14.635841 -19.673005
LeftShoulder -3.277896 -11.896728 5.093795
LeftArm -0.790492 -26.873288 -44.884193
LeftForeArm -5.136778 -0.000000 76.490411
LeftHand -18.110828 0.000000 54.263111
LeftHandThumb1 -26.253704 0.000000 33.147579
RightShoulder -2.545780 -20.609913 -5.888442
RightArm 12.079714 -15.932510 56.224162
RightForeArm 191.266790 0.000000 39.704690
RightHand -2.064592 -0.000000 7.168418
RightHandThumb1 -24.326973 -0.000000 -32.862282
LeftUpLeg -9.711992 4.384928 17.741538
LeftLeg 65.215933 -0.000000 -0.000000
LeftFoot 8.992844 -0.121660 -29.305742
LeftToeBase 12.477002 -0.000000 -0.000000
RightUpLeg -34.713686 -17.613805 3.011709
RightLeg 5.082042 -0.000000 -0.000000
RightFoot -11.154652 -4.141032 -3.426574
RightToeBase -0.127211 -0.000000 0.000000
3892
root -1.971656 37.706811 0.488407 38.792615 19.928757 15.845358
Spine -9.074814 6.963512 -4.997857
Head -10.614375 14.608126 -19.781822
LeftShoulder -3.272840 -11.916322 5.040695
LeftArm -0.671366 -26.862370 -44.963070
LeftForeArm -5.172504 -0.000000 76.417207
LeftHand -18.064412 -0.000000 54.127321
LeftHandThumb1 -26.253704 0.000000 33.147579
RightShoulder -2.504011 -20.612182 -5.935983
RightArm 12.071001 -15.939305 56.264406
RightForeArm 191.288927 0.000000 39.595049
RightHand -2.122346 -0.000000 7.091889
RightHandThumb1 -24.326973 -0.000000 -32.862282
LeftUpLeg -9.415630 4.407801 17.685207
LeftLeg 62.280858 -0.000000 -0.000000
LeftFoot 9.177201 0.096653 -29.152883
LeftToeBase 12.575937 -0.000000 -0.000000
RightUpLeg -34.677566 -17.855979 2.918206
RightLeg 5.075272 -0.000000 -0.000000
RightFoot -11.193966 -4.048801 -3.306523
RightToeBase 0.006026 -0.000000 -0.000000
3893
root -1.980443 37.718691 0.488142 38.854071 20.067106 16.060073
Spine -8.952136 6.890886 -5.059714
Head -10.552494 14.591012 -19.865540
LeftShoulder -3.254941 -11.935594 4.994367
LeftArm -0.569447 -26.863562 -45.047141
LeftForeArm -5.196331 -0.000000 76.349996
LeftHand -18.034681 0.000000 53.983654
LeftHandThumb1 -26.253704 0.000000 33.147579
RightShoulder -2.484096 -20.636921 -5.995995
RightArm 12.097078 -15.994302 56.280102
RightForeArm 191.296203 -0.000000 39.514392
RightHand -2.116217 -0.000000 7.016545
RightHandThumb1 -24.326973 -0.000000 -32.862282
LeftUpLeg -9.104996 4.471998 17.630166
LeftLeg 59.260251 -0.000000 -0.000000
LeftFoot 9.384170 0.386019 -29.029696
LeftToeBase 12.567461 -0.000000 -0.000000
RightUpLeg -34.662205 -18.080646 2.844846
RightLeg 5.073153 -0.000000 -0.000000
RightFoot -11.177702 -4.117821 -3.312056
RightToeBase -0.117900 -0.000000 0.000000
3894
root -1.987194 37.729971 0.487845 38.916887 20.203022 16.284909
Spine -8.833951 6.821482 -5.122041
Head -10.481419 14.553747 -19.985572
LeftShoulder -3.224013 -11.931076 4.935804
LeftArm -0.463833 -26.887038 -45.126444
LeftForeArm -5.265244 -0.000000 76.274071
LeftHand -17.950904 -0.000000 53.806115
LeftHandThumb1 -26.253704 0.000000 33.147579
RightShoulder -2.446474 -20.639832 -6.072600
RightArm 12.089075 -16.042158 56.325275
RightForeArm 191.272862 -0.000000 39.436767
RightHand -2.101663 -0.000000 7.088723
RightHandThumb1 -24.326973 -0.000000 -32.862282
LeftUpLeg -8.766109 4.514832 17.549510
LeftLeg 56.136678 -0.000000 -0.000000
LeftFoot 9.622745 0.820594 -28.969995
LeftToeBase 12.539645 -0.000000 -0.000000
RightUpLeg -34.631812 -18.302499 2.754119
RightLeg 5.049971 -0.000000 -0.000000
RightFoot -11.182970 -4.108616 -3.281483
RightToeBase -0.018150 -0.000000 0.000000
